<?xml version="1.0" standalone="no"?>
<!DOCTYPE svg PUBLIC "-//W3C//DTD SVG 20010904//EN"
 "http://www.w3.org/TR/2001/REC-SVG-20010904/DTD/svg10.dtd">
<svg version="1.0" xmlns="http://www.w3.org/2000/svg"
 width="700.000000pt" height="700.000000pt" viewBox="0 0 700.000000 700.000000"
 preserveAspectRatio="xMidYMid meet">
<metadata>
Created by potrace 1.11, written by Peter Selinger 2001-2013
</metadata>
<g transform="translate(0.000000,700.000000) scale(0.100000,-0.100000)"
fill="#000000" stroke="none">
<path d="M972 3500 l0 -3250 2528 0 2528 0 0 2588 1 2587 -662 663 -662 662
-1867 0 -1866 0 0 -3250z m3613 2458 l0 -648 25 -1 c14 0 303 0 642 0 436 -1
620 -4 625 -11 5 -9 9 -3501 4 -3588 -1 -13 -272 -15 -2377 -15 -2234 0 -2377
1 -2383 17 -5 13 -6 4833 -2 4883 1 7 554 10 1734 10 l1732 0 0 -647z m636 68
c266 -266 504 -505 528 -530 l44 -45 -531 0 -532 -1 0 530 c0 292 2 530 4 530
2 0 221 -218 487 -484z m-1317 -4670 c33 -14 36 -18 30 -43 -14 -59 -20 -63
-56 -45 -47 23 -155 28 -201 9 -47 -20 -78 -69 -73 -118 7 -72 36 -97 181
-159 101 -44 169 -107 183 -171 39 -187 -88 -310 -307 -296 -69 4 -157 25
-180 43 -2 2 2 23 8 47 l13 44 59 -24 c146 -59 290 -13 305 98 11 79 -47 142
-173 189 -140 52 -204 131 -197 243 6 87 62 155 158 189 60 22 191 19 250 -6z
m-565 -299 c-1 -332 -6 -377 -50 -442 -47 -69 -177 -106 -281 -80 -30 8 -32
14 -22 64 6 31 15 33 84 18 22 -4 101 17 113 31 45 50 49 81 50 407 l1 311 53
2 53 1 -1 -312z"/>
<path d="M3025 4489 c-93 -10 -123 -18 -174 -44 -49 -24 -100 -75 -125 -123
-36 -70 -42 -207 -19 -402 4 -36 8 -104 8 -152 0 -72 -4 -91 -21 -115 -25 -35
-85 -65 -130 -67 -23 -1 -34 -6 -35 -16 -3 -59 -1 -171 4 -176 3 -3 19 -8 36
-10 73 -12 115 -41 138 -95 12 -28 10 -150 -3 -269 -5 -41 -8 -127 -8 -190 -1
-103 2 -121 25 -170 46 -98 116 -151 227 -172 58 -11 189 -18 207 -11 8 3 13
163 6 206 0 4 -22 7 -48 7 -92 0 -145 60 -146 165 0 28 5 118 13 202 11 123
11 165 1 222 -19 108 -76 171 -174 195 -30 7 -28 26 3 26 23 0 82 32 109 59
11 11 30 39 43 63 19 37 23 58 23 158 0 63 -4 149 -9 190 -20 166 -3 256 56
286 25 13 67 21 118 23 13 1 15 19 15 105 l0 104 -40 4 c-22 2 -67 0 -100 -3z"/>
<path d="M3875 4490 l-39 -5 -1 -98 c0 -55 4 -101 9 -105 5 -3 29 -6 52 -8 99
-6 138 -61 137 -194 -1 -47 -4 -98 -8 -115 -12 -57 -15 -260 -4 -300 23 -81
83 -140 167 -166 l42 -12 -49 -17 c-68 -23 -115 -61 -142 -117 -21 -42 -24
-63 -24 -158 0 -60 4 -146 9 -190 15 -125 12 -197 -10 -241 -23 -47 -71 -74
-131 -74 -24 0 -43 -3 -44 -7 -6 -43 -2 -196 6 -202 12 -9 119 -7 190 3 71 9
168 59 204 104 55 70 66 114 65 252 0 69 -4 161 -9 205 -17 139 -13 240 11
271 23 32 75 61 121 67 17 3 35 7 40 10 6 4 9 128 4 182 -1 6 -16 11 -35 12
-46 1 -105 31 -130 66 -18 25 -21 42 -20 135 1 59 4 123 8 142 3 19 9 89 12
155 6 98 3 132 -11 180 -29 102 -90 165 -190 200 -58 20 -173 32 -230 25z"/>
</g>
</svg>
