<svg width="512" height="512" xmlns="http://www.w3.org/2000/svg">
  <defs>
    <linearGradient y2="0%" x2="100%" y1="0%" x1="0%" id="svg_7" gradientTransform="rotate(25)">
      <stop stop-color=" rgb(78, 26, 112)" offset="0%"/>
      <stop stop-color=" rgb(43, 76, 242)" offset="100%"/>
    </linearGradient>
  </defs>
  <g fill="url(#svg_7)" transform="matrix(5.281126684202794,0,0,5.281126684202794,-15216.889877492466,-12756.59737039026) " id="svg_6">
    <path stroke="null" stroke-width="0" id="svg_11" d="m2962.84646,2435.31134l0,0.006l-14.336,-14.336l0.006,0l-2,-2l-51.67,0l0,90l70,0l0,-71.67l-2,-2zm-15.969,-13.135l14.773,14.773l-14.773,0l0,-14.773zm-19.25,79.014c0,3.043 -1.496,3.978 -3.468,3.978c-0.544,0 -1.207,-0.118 -1.581,-0.271l0.221,-1.207c0.306,0.119 0.748,0.221 1.241,0.221c1.326,0 2.108,-0.595 2.108,-2.838l0,-7.548l1.479,0l0,7.665zm4.811,3.961c-1.104,0 -2.312,-0.323 -2.923,-0.73l0.374,-1.241a5.238,5.238 0 0 0 2.652,0.748c1.513,0 2.396,-0.799 2.396,-1.955c0,-1.071 -0.612,-1.683 -2.159,-2.277c-1.869,-0.663 -3.025,-1.632 -3.025,-3.247c0,-1.785 1.479,-3.11 3.706,-3.11c1.173,0 2.022,0.271 2.532,0.561l-0.408,1.207a4.56,4.56 0 0 0 -2.176,-0.544c-1.563,0 -2.158,0.935 -2.158,1.717c0,1.071 0.697,1.598 2.277,2.21c1.938,0.748 2.924,1.683 2.924,3.365c0,1.767 -1.309,3.296 -4.012,3.296zm30.408,-16.17l-66,0l0,-68l48.031,0l0,17.969l17.969,0l0,50.031z"/>
    <path stroke="null" stroke-width="0" id="svg_12" d="m2916.37146,2462.84234c2.415,-0.07 2.66,-1.33 2.66,-2.38c0,-0.875 -0.105,-1.785 -0.21,-2.73a25.518,25.518 0 0 1 -0.175,-2.766c0,-3.29 2.065,-4.726 5.321,-4.726l1.225,0l0,2.976l-0.63,0c-1.575,0 -2.135,0.945 -2.135,2.485c0,0.63 0.105,1.26 0.175,1.995c0.07,0.7 0.175,1.505 0.175,2.38c0.035,2.66 -1.05,3.64 -2.975,4.06l0,0.07c1.925,0.42 3.01,1.436 2.975,4.096c0,0.91 -0.105,1.715 -0.175,2.449c-0.07,0.701 -0.175,1.365 -0.175,1.961c0,1.54 0.525,2.521 2.135,2.521l0.63,0l0,2.939l-1.26,0c-3.115,0 -5.286,-1.26 -5.286,-4.76c0,-0.876 0.07,-1.82 0.175,-2.766c0.105,-0.944 0.21,-1.854 0.21,-2.729c0,-0.98 -0.245,-2.311 -2.66,-2.381l0,-2.694zm26.952,2.696c-2.381,0.07 -2.66,1.4 -2.66,2.381c0,0.875 0.104,1.785 0.21,2.729c0.104,0.945 0.21,1.89 0.21,2.766c0,3.5 -2.171,4.76 -5.321,4.76l-1.26,0l0,-2.939l0.63,0c1.61,-0.035 2.136,-0.98 2.136,-2.521c0,-0.596 -0.07,-1.26 -0.176,-1.961c-0.069,-0.734 -0.175,-1.539 -0.175,-2.449c-0.035,-2.66 1.051,-3.676 3.011,-4.096l0,-0.07c-1.96,-0.42 -3.046,-1.4 -3.011,-4.06c0,-0.875 0.105,-1.68 0.175,-2.38c0.105,-0.735 0.176,-1.365 0.176,-1.995c0,-1.541 -0.561,-2.45 -2.136,-2.485l-0.63,0l0,-2.977l1.226,0c3.29,0 5.355,1.436 5.355,4.726c0,0.875 -0.105,1.82 -0.21,2.766c-0.105,0.945 -0.21,1.855 -0.21,2.73c0,1.05 0.279,2.31 2.66,2.38l0,2.695z"/>
  </g>
</svg>